<svg width="85" height="39" viewBox="0 0 85 39" fill="none" xmlns="http://www.w3.org/2000/svg">
<path d="M1.67871 13.7376C4.58852 10.5543 12.4306 4.58347 20.5205 6.16651C30.6328 8.14531 36.2507 13.7376 49.2153 13.7376C62.1798 13.7376 72.5514 -0.458118 83.8737 2.55306" stroke="#B2C4F0" stroke-width="3"/>
<path d="M1.67871 25.3411C4.58852 22.1578 12.4306 16.187 20.5205 17.77C30.6328 19.7488 36.2507 25.3411 49.2153 25.3411C62.1798 25.3411 72.5514 11.1454 83.8737 14.1566" stroke="#B2C4F0" stroke-width="3"/>
<path d="M1.67871 36.9446C4.58852 33.7613 12.4306 27.7905 20.5205 29.3735C30.6328 31.3523 36.2507 36.9446 49.2153 36.9446C62.1798 36.9446 72.5514 22.7489 83.8737 25.7601" stroke="#B2C4F0" stroke-width="3"/>
</svg>
